<svg width="214" height="48" viewBox="0 0 214 48" fill="none" xmlns="http://www.w3.org/2000/svg" role="img" aria-labelledby="title desc">
  <title id="title">DeepTrust AI Logo</title>
  <desc id="desc">DeepTrust AI cybersecurity shield logo with wordmark</desc>
  <defs>
    <linearGradient id="shield" x1="6" y1="4" x2="43" y2="44" gradientUnits="userSpaceOnUse">
      <stop stop-color="#4F46E5"/>
      <stop offset="0.52" stop-color="#06B6D4"/>
      <stop offset="1" stop-color="#2563EB"/>
    </linearGradient>
    <linearGradient id="text" x1="56" y1="14" x2="204" y2="35" gradientUnits="userSpaceOnUse">
      <stop stop-color="#FFFFFF"/>
      <stop offset="1" stop-color="#CFFAFE"/>
    </linearGradient>
  </defs>
  <path d="M24 4L42 11.2V22.6C42 33.8 34.7 41.7 24 45C13.3 41.7 6 33.8 6 22.6V11.2L24 4Z" fill="url(#shield)"/>
  <path d="M24 9.5L36.8 14.6V22.9C36.8 30.7 31.8 36.6 24 39.4C16.2 36.6 11.2 30.7 11.2 22.9V14.6L24 9.5Z" fill="#050816" fill-opacity="0.72"/>
  <path d="M17.5 25.6L22.1 30.2L31.5 18.5" stroke="#67E8F9" stroke-width="3" stroke-linecap="round" stroke-linejoin="round"/>
  <path d="M24 13.8V18.2" stroke="#A5B4FC" stroke-width="2" stroke-linecap="round"/>
  <path d="M17.7 17.4L20.7 20.4" stroke="#A5B4FC" stroke-width="2" stroke-linecap="round"/>
  <path d="M30.3 17.4L27.3 20.4" stroke="#A5B4FC" stroke-width="2" stroke-linecap="round"/>
  <text x="56" y="30" fill="url(#text)" stroke="#050816" stroke-width="0.7" paint-order="stroke fill" font-family="Inter, Arial, sans-serif" font-size="20" font-weight="800" letter-spacing="0">DeepTrust AI</text>
</svg>
